<svg fill="none" height="160" viewBox="0 0 432 160" width="432" xmlns="http://www.w3.org/2000/svg"><path d="m0 0h432v160h-432z" fill="#00203f"/><path d="m194 61.7722c0-4.0207 1.747-7.3212 5.24-9.9016 3.494-2.5804 8.734-3.8706 15.721-3.8706s12.348 1.2902 16.082 3.8706c3.795 2.5804 5.692 6.451 5.692 11.6118 0 1.6803-.15 3.2105-.452 4.5907-.301 1.3202-.993 2.7305-2.078 4.2307-1.024 1.4402-2.048 2.7304-3.072 3.8706-.963 1.1402-2.65 2.6404-5.059 4.5007-3.614 2.8805-7.409 5.7609-11.384 8.6414-3.975 2.8204-6.294 4.4706-6.957 4.9507l-5.511 3.9606h21.684c4.156 0 7.107-.9001 8.854-2.7004s2.981-4.6207 3.704-8.4613h1.536l-.903 24.9339h-42.465v-10.442l9.126-8.3709c6.204-5.6409 10.601-10.6517 13.191-15.0324 2.59-4.4407 3.885-9.3014 3.885-14.5823 0-5.3408-.573-8.9714-1.717-10.8917-1.144-1.9803-3.072-2.9704-5.782-2.9704-2.711 0-4.608.6901-5.692 2.0703s-1.627 2.7004-1.627 3.9606.181 2.3704.543 3.3305h2.71c.482 1.2602.723 2.7905.723 4.5907 0 1.7403-.753 3.2706-2.259 4.5908-1.506 1.2602-3.493 1.8903-5.963 1.8903s-4.397-.7802-5.782-2.3404c-1.325-1.6203-1.988-3.6306-1.988-6.0309z" fill="#adefd1"/></svg>