<svg fill="none" height="160" viewBox="0 0 432 160" width="432" xmlns="http://www.w3.org/2000/svg" xmlns:xlink="http://www.w3.org/1999/xlink"><linearGradient id="a" gradientUnits="userSpaceOnUse" x1="200.571" x2="200.571" y1="100.569" y2="69.6362"><stop offset="0" stop-color="#ff7a00"/><stop offset="1" stop-color="#fd0"/></linearGradient><linearGradient id="b" gradientUnits="userSpaceOnUse" x1="209.571" x2="250.714" y1="79.9972" y2="79.9972"><stop offset="0" stop-color="#2effcf" stop-opacity=".5"/><stop offset="1" stop-color="#4fe381"/></linearGradient><path d="m0 0h432v160h-432z" fill="#fff"/><path d="m200.571 100.569c11.362 0 20.572-9.2105 20.572-20.5718s-9.21-20.5714-20.572-20.5714c-11.361 0-20.571 9.2101-20.571 20.5714s9.21 20.5718 20.571 20.5718z" fill="url(#a)"/><path clip-rule="evenodd" d="m200.571 59.4258h51.429v41.1432h-51.429z" fill="#fff" fill-opacity=".5" fill-rule="evenodd"/><path d="m230.143 100.569c11.361 0 20.571-9.2105 20.571-20.5718s-9.21-20.5714-20.571-20.5714c-11.362 0-20.572 9.2101-20.572 20.5714s9.21 20.5718 20.572 20.5718z" fill="url(#b)"/><path d="m0 159h432v1h-432z" fill="#e6f0ff"/></svg>