<svg fill="none" height="160" viewBox="0 0 432 160" width="432" xmlns="http://www.w3.org/2000/svg" xmlns:xlink="http://www.w3.org/1999/xlink"><clipPath id="a"><path d="m0 0h432v160h-432z"/></clipPath><clipPath id="b"><path d="m182 51h68v58.2857h-68z"/></clipPath><g clip-path="url(#a)"><path d="m0 0h432v160h-432z" fill="#121212"/><g clip-path="url(#b)"><path d="m249.893 75.3401c0-.1506-.006-.3011-.013-.4516h.007v-.1922c-.167-6.3665-2.77-12.3232-7.334-16.7779-4.573-4.4611-10.61-6.9174-16.999-6.9174-12.775 0-23.273 9.8925-24.256 22.4175h-19.298v35.8685h33.947c8.957 0 17.408-3.459 23.797-9.736 6.373-6.2673 9.976-14.6322 10.143-23.5609v-.0223-.1762c0-.0319.009-.0608.009-.0929v-.3586zm-17.934 14.0911c-7.119 0-13.015-5.3067-13.956-12.1696h27.916c-.929 6.9366-6.793 12.1696-13.96 12.1696zm-6.405-34.5872c3.907 0 7.654 1.0921 10.892 3.1256-.122-.032-.25-.0544-.372-.0832-.147-.0352-.297-.0673-.445-.0993-.169-.0352-.339-.0672-.509-.0993-.189-.0352-.381-.064-.573-.0896-.141-.0193-.285-.0417-.426-.0609-.292-.0352-.583-.0608-.878-.0833-.051-.0032-.099-.0096-.15-.0128-.346-.0224-.698-.032-1.051-.032-.025 0-.051 0-.076 0-.141 0-.282.0064-.423.0096-.119 0-.237 0-.359.0064-.029 0-.054.0032-.083.0064-.087.0032-.17.0096-.256.016-.199.0128-.394.0257-.593.0449-.105.0096-.211.0224-.317.0352-.173.0192-.343.0416-.515.064-.116.0161-.234.0353-.349.0513-.157.0256-.314.0544-.468.0832-.122.0225-.243.0449-.365.0705-.154.032-.304.0705-.455.1057-.118.0288-.237.0544-.355.0865-.253.0672-.506.1377-.756.2145-.096.0288-.189.0641-.285.0929-.17.0544-.343.1121-.513.1729-.089.0321-.179.0673-.269.1025-.179.0673-.355.1377-.531.2082-.071.0288-.141.0608-.212.0896-.205.0865-.406.1794-.605.2755-.038.0192-.077.0384-.118.0576-1.461.7078-2.828 1.6077-4.051 2.6933-2.486 2.2033-4.266 4.9768-5.233 8.0448-.013.0352-.023.0736-.036.1088-.067.221-.131.442-.189.663-.022.08-.044.1633-.064.2433-.048.1858-.089.3747-.131.5604-.026.1185-.051.237-.074.3587-.032.1602-.057.3203-.086.4804-.026.1474-.048.2978-.071.4451-.019.141-.038.2852-.054.4292-.019.1633-.038.3299-.051.4964-.013.1377-.023.2754-.032.4131-.01.1666-.019.333-.026.4996 0 .0673-.009.1345-.009.2017-.004.1634-.007.33-.007.4933v.0479.0481c.055 9.8446 8.077 17.838 17.931 17.838 1.524 0 3.023-.1921 4.467-.5604-.131.08-.259.1633-.39.2434-.051.0289-.1.0608-.151.0897-.253.1473-.509.2881-.765.4259-.064.032-.128.0641-.189.096-.205.1058-.41.2082-.615.3043-.077.0352-.154.0737-.231.1089-.253.1153-.509.2273-.768.3363-.013.0064-.026.0096-.039.016-.269.1088-.544.2113-.819.3106-.081.0288-.157.0544-.237.0833-.212.0736-.426.1441-.644.2081-.074.0225-.147.0448-.221.0673-.279.0833-.56.1602-.842.2306-.052.0127-.103.0223-.151.0352-.237.0577-.477.1089-.717.1569-.087.016-.17.0352-.256.0512-.237.0448-.478.0865-.718.1217-.057.0097-.112.0193-.17.0256-.291.0417-.582.0769-.877.1058-.074.0063-.151.0127-.227.0192-.231.0192-.462.0384-.692.0512-.087.0032-.17.0096-.256.0128-.298.0128-.599.0224-.9.0224-11.302 0-20.496-9.1944-20.496-20.496 0-11.3017 9.201-20.4897 20.502-20.4897zm11.497 41.9657c-5.665 5.5693-13.159 8.6343-21.104 8.6343-.253 0-.51-.004-.763-.01-.083 0-.169-.006-.253-.01-.166-.006-.336-.009-.502-.019-.1-.006-.199-.013-.298-.019-.151-.01-.304-.016-.455-.029-.106-.006-.211-.019-.32-.029-.144-.012-.285-.022-.429-.038-.109-.01-.218-.022-.327-.035-.138-.016-.279-.029-.416-.048-.109-.013-.221-.029-.33-.045-.135-.019-.272-.035-.407-.058-.112-.016-.224-.035-.336-.054-.131-.023-.263-.042-.394-.064-.112-.019-.224-.042-.336-.061-.132-.026-.26-.048-.391-.074-.112-.022-.221-.045-.333-.07-.128-.029-.256-.055-.384-.083-.112-.026-.221-.052-.33-.077-.128-.029-.253-.061-.381-.093-.109-.029-.221-.058-.33-.087-.125-.032-.25-.067-.378-.102-.109-.032-.218-.061-.327-.093-.125-.035-.25-.074-.375-.112-.108-.032-.214-.067-.32-.099-.125-.039-.246-.08-.371-.122-.106-.035-.212-.071-.317-.109-.122-.042-.244-.087-.369-.128-.105-.039-.211-.077-.313-.115-.122-.045-.244-.093-.362-.138-.103-.042-.208-.08-.311-.122-.122-.048-.24-.096-.359-.147-.102-.042-.205-.087-.307-.128-.119-.051-.237-.103-.355-.157-.1-.045-.202-.09-.302-.135-.118-.054-.237-.112-.358-.166-.096-.045-.196-.093-.292-.138-.118-.058-.237-.118-.355-.176-.096-.048-.189-.096-.285-.144-.119-.061-.237-.125-.359-.189-.093-.048-.182-.096-.272-.147-.122-.068-.24-.135-.362-.202-.086-.048-.173-.096-.259-.147-.125-.071-.247-.145-.372-.218-.08-.048-.163-.096-.243-.144-.132-.08-.263-.164-.394-.247-.071-.045-.141-.086-.208-.131-.157-.103-.314-.205-.471-.311-.042-.029-.083-.054-.122-.08-.198-.134-.394-.269-.589-.4099-.01-.0064-.016-.0127-.026-.0192-.185-.1312-.368-.2658-.55-.4003-.058-.0417-.116-.0865-.17-.1313-.131-.0993-.263-.1985-.394-.301-.067-.0545-.135-.1089-.205-.1633-.115-.0929-.234-.1858-.349-.2819-.074-.0608-.147-.1249-.221-.1858-.109-.0896-.215-.1793-.32-.2722-.074-.064-.151-.1313-.225-.1953-.102-.0897-.205-.1826-.307-.2722-.077-.0673-.15-.1377-.224-.2082-.1-.0928-.199-.1826-.295-.2754-.077-.0705-.15-.1441-.224-.2146-.096-.0929-.192-.1857-.285-.2786-.074-.0737-.147-.1505-.221-.2241-.093-.0929-.186-.1858-.275-.2819-.074-.0768-.148-.1537-.218-.2306-.09-.096-.18-.1889-.266-.2849-.074-.0802-.144-.1602-.215-.2371-.086-.096-.172-.1921-.259-.2914-.07-.08-.141-.1633-.211-.2433-.084-.0994-.167-.1954-.25-.2948-.071-.0831-.138-.1664-.205-.2497-.083-.0994-.163-.2018-.243-.3042-.068-.0833-.135-.1698-.199-.2531-.08-.1025-.157-.2049-.237-.3074-.064-.0865-.131-.1729-.195-.2594-.077-.1025-.154-.2081-.228-.3139-.064-.0864-.125-.1729-.185-.2625-.074-.1058-.151-.2146-.225-.3203-.061-.0897-.121-.1761-.179-.2659-.074-.1088-.144-.2177-.215-.3266-.057-.0896-.118-.1793-.176-.269-.07-.112-.141-.221-.208-.333-.054-.0898-.112-.1794-.166-.2723-.068-.1121-.135-.2273-.202-.3426-.055-.0897-.106-.1826-.16-.2723-.068-.1152-.132-.2337-.196-.3523-.051-.0896-.102-.1825-.15-.2721-.064-.1185-.128-.2402-.192-.362-.048-.0896-.096-.1793-.141-.2721-.064-.1249-.125-.2499-.189-.3779-.045-.0897-.09-.1762-.131-.2659-.065-.1313-.125-.2658-.186-.3971-.039-.0833-.08-.1697-.119-.2529-.064-.1441-.128-.2883-.189-.4324-.032-.0769-.067-.1505-.099-.2273-.077-.1794-.147-.3587-.221-.5412-.016-.0417-.035-.0833-.051-.1281-.09-.2243-.173-.4485-.256-.6758-.02-.0481-.036-.0993-.052-.1506-.064-.176-.128-.3554-.189-.5316-.028-.0833-.054-.1633-.08-.2466-.048-.1473-.099-.2946-.144-.4419-.029-.0929-.057-.1858-.083-.2787-.042-.1377-.083-.2754-.125-.4162-.029-.0993-.054-.2018-.083-.301-.039-.1346-.074-.2691-.109-.4035-.026-.1058-.051-.2083-.08-.3139-.032-.1313-.064-.2627-.096-.3939-.026-.109-.048-.2178-.074-.3267-.029-.1313-.057-.2594-.086-.3907-.023-.1121-.045-.2242-.068-.3331-.025-.128-.051-.2561-.073-.3875-.019-.1121-.039-.2273-.061-.3427-.022-.1281-.045-.2593-.064-.3875-.019-.1152-.035-.2305-.051-.3458-.02-.1281-.039-.2595-.055-.3876-.016-.1152-.029-.2337-.045-.349-.016-.1281-.032-.2593-.044-.3907-.013-.1185-.026-.2369-.036-.3554-.012-.1282-.022-.2595-.035-.3875-.01-.1185-.019-.2403-.026-.3587-.003-.0673-.009-.1346-.012-.2018h15.388c.006.0993.022.1985.032.2978.016.1825.035.3683.057.5508.026.2179.052.4324.084.647.025.1793.051.3586.08.5379.035.2146.073.4292.115.6406.035.1762.067.3522.106.5251.045.2114.096.4229.147.6341.042.1698.083.3427.128.5125.058.2114.119.4195.179.6309.048.1665.097.3298.151.4931.067.2114.141.4196.211.6278.055.1569.109.3169.167.474.08.2112.163.4195.246.6276.061.1506.119.301.183.4483.093.2146.189.4228.288.6341.064.1377.125.2787.192.4164.109.221.221.4387.337.6565.064.1218.125.2466.192.3682.131.2402.272.4773.41.7143.054.0929.109.1889.163.2818.4.6565.833 1.2938 1.291 1.9086.045.0577.092.1154.134.1731.186.2433.375.4867.57.7268.077.0962.16.1858.24.2819.167.1954.334.3939.506.5828.096.1058.196.2082.295.3139.163.1729.323.3459.49.5156.109.1089.221.2146.33.3202.163.157.327.3171.493.4708.119.1089.237.2114.359.3171.166.1472.333.2914.503.4355.124.1057.252.205.381.3075.169.1377.339.2722.512.4035.131.0993.269.1985.404.2978.172.1249.349.253.525.3747.138.0961.282.189.423.2818.179.1185.355.2339.538.3459.144.0897.291.1794.438.2658.183.1088.365.2146.551.3171.151.0832.301.1665.455.2465.186.0993.375.1954.567.2914.153.0769.31.1538.467.2275.192.0896.385.1762.58.2626.16.0704.32.1409.48.205.196.08.394.1569.593.2337.163.064.326.1249.493.1857.202.0737.403.141.608.205.167.0545.333.1089.5.1601.208.0641.416.1217.624.1794.17.0448.337.0929.506.1377.215.0544.433.1025.647.1506.167.0383.337.0768.503.112.224.0448.452.0832.676.1217.167.0288.33.0608.496.0833.237.0352.478.064.718.0928.157.0193.313.0416.47.0577.266.0256.535.0448.807.0608.135.0096.266.0225.401.0289.403.0192.813.0319 1.22.0319.355 0 .711-.0096 1.063-.0256.08-.0032.16-.0063.24-.0096.346-.0192.692-.0416 1.035-.0736.048-.0033.096-.0096.147-.016.311-.0321.621-.0704.929-.1121.07-.0096.144-.0193.214-.0289.337-.0512.673-.1056 1.006-.1729.07-.0127.138-.0288.208-.0416.301-.0609.599-.1249.897-.1986.054-.0127.109-.0256.16-.0384.33-.0832.657-.1729.98-.2658.077-.0224.154-.0449.227-.0672.317-.0961.634-.1986.948-.3075.013-.0064.029-.0096.042-.0129.323-.1152.644-.2369.964-.365.073-.0288.147-.0608.221-.0897.314-.1313.628-.2658.938-.4067.035-.016.074-.0352.109-.0512.285-.1346.567-.2754.846-.4196.064-.032.128-.0639.189-.0993.047-.0256.092-.0479.14-.0736l-.012.0128z" fill="#f2f2f2"/></g></g></svg>